<mxfile host="www.draw.io" modified="2020-02-25T02:26:55.687Z" agent="Mozilla/5.0 (Windows NT 6.1; Win64; x64) AppleWebKit/537.36 (KHTML, like Gecko) Chrome/79.0.3945.130 Safari/537.36" etag="QQMv4j9556ZdYa17Fs-Q" version="12.7.4" type="github">
  <diagram id="eeZinzDYCKiKi7uPJneW" name="Page-1">
    <mxGraphModel dx="1014" dy="791" grid="1" gridSize="10" guides="1" tooltips="1" connect="1" arrows="1" fold="1" page="1" pageScale="1" pageWidth="1169" pageHeight="827" math="0" shadow="0">
      <root>
        <mxCell id="0" />
        <mxCell id="1" parent="0" />
        <mxCell id="y-3zm-vdMrqWBojXeHMg-1" value="Foreland&lt;br&gt;Inc." style="rounded=1;whiteSpace=wrap;html=1;fontSize=20;" vertex="1" parent="1">
          <mxGeometry x="250" y="230" width="120" height="110" as="geometry" />
        </mxCell>
      </root>
    </mxGraphModel>
  </diagram>
</mxfile>
